<?xml version="1.0" encoding="UTF-8" standalone="no"?>
<!-- Created with Inkscape (http://www.inkscape.org/) -->

<svg
   xmlns:dc="http://purl.org/dc/elements/1.1/"
   xmlns:cc="http://creativecommons.org/ns#"
   xmlns:rdf="http://www.w3.org/1999/02/22-rdf-syntax-ns#"
   xmlns:svg="http://www.w3.org/2000/svg"
   xmlns="http://www.w3.org/2000/svg"
   xmlns:sodipodi="http://sodipodi.sourceforge.net/DTD/sodipodi-0.dtd"
   xmlns:inkscape="http://www.inkscape.org/namespaces/inkscape"
   width="109.56752"
   height="47.623135"
   viewBox="0 0 28.989741 12.600288"
   version="1.1"
   id="svg4627"
   inkscape:version="0.92.1 r15371"
   sodipodi:docname="cm-logo-sm.svg"
   inkscape:export-filename="C:\Users\Charley\Sites\restaurant\app\assets\images\cm-logo-letters.png"
   inkscape:export-xdpi="96"
   inkscape:export-ydpi="96">
  <defs
     id="defs4621" />
  <sodipodi:namedview
     id="base"
     pagecolor="#ffffff"
     bordercolor="#666666"
     borderopacity="1.0"
     inkscape:pageopacity="0.0"
     inkscape:pageshadow="2"
     inkscape:zoom="1"
     inkscape:cx="-507.93012"
     inkscape:cy="89.576908"
     inkscape:document-units="px"
     inkscape:current-layer="layer1"
     showgrid="false"
     showguides="true"
     inkscape:guide-bbox="true"
     units="px"
     inkscape:window-width="1920"
     inkscape:window-height="1057"
     inkscape:window-x="-8"
     inkscape:window-y="-8"
     inkscape:window-maximized="1"
     inkscape:snap-global="false" />
  <metadata
     id="metadata4624">
    <rdf:RDF>
      <cc:Work
         rdf:about="">
        <dc:format>image/svg+xml</dc:format>
        <dc:type
           rdf:resource="http://purl.org/dc/dcmitype/StillImage" />
        <dc:title></dc:title>
      </cc:Work>
    </rdf:RDF>
  </metadata>
  <g
     inkscape:label="Layer 1"
     inkscape:groupmode="layer"
     id="layer1"
     transform="translate(-65.508259,-132.39638)">
    <g
       id="g5268"
       inkscape:export-xdpi="96"
       inkscape:export-ydpi="96">
      <g
         transform="translate(8.6561711,-4.4979167)"
         id="g5225">
        <g
           aria-label="&amp;"
           style="font-style:normal;font-weight:normal;font-size:6.92454386px;line-height:1.25;font-family:sans-serif;letter-spacing:0px;word-spacing:0px;fill:#000000;fill-opacity:1;stroke:none;stroke-width:0.1731136"
           id="text4553"
           transform="matrix(0.5818143,0,0,0.5818143,28.060714,59.976488)">
          <path
             d="m 60.631144,138.53248 q 0.01378,0.0221 0.0689,0.0744 0.05512,0.0496 0.05512,0.10474 0,0.0606 -0.09095,0.0606 -0.02481,0 -0.09922,-0.006 -0.07441,-0.008 -0.121267,-0.008 -0.26734,0 -0.611849,0.28387 -0.341754,0.28388 -0.341754,0.87919 0,0.4768 0.33073,0.85163 0.330729,0.37207 0.774457,0.37207 0.443728,0 0.837847,-0.30041 0.394119,-0.30317 0.394119,-0.73312 0,-0.32246 -0.184657,-0.50987 -0.184657,-0.19017 -0.391363,-0.19017 -0.162608,0 -0.275607,0.10749 -0.113,0.10473 -0.113,0.27836 0,0.11575 0.113,0.20119 0.06063,0.0441 0.06063,0.0744 0,0.0386 -0.04134,0.0717 -0.04134,0.0303 -0.08268,0.0303 -0.09922,0 -0.181901,-0.11024 -0.08268,-0.113 -0.08268,-0.28112 0,-0.20119 0.09646,-0.3831 0.09646,-0.18465 0.347266,-0.37482 0.250803,-0.19293 0.567752,-0.27837 0.316948,-0.0854 0.832335,-0.0854 0.468533,0 0.757921,-0.0992 0.292144,-0.10198 0.292144,-0.31971 0,-0.0248 -0.02756,-0.0744 -0.02756,-0.0524 -0.02756,-0.0827 0,-0.0965 0.118511,-0.0965 0.0689,0 0.113,0.0799 0.0441,0.0772 0.0441,0.16812 0,0.17088 -0.14056,0.34727 -0.137804,0.17363 -0.385851,0.30868 -0.245291,0.13229 -0.551215,0.17639 -0.303168,0.0441 -0.840603,0.0441 -0.305925,0 -0.385851,0.0331 -0.07717,0.0303 -0.07717,0.0496 0,0.0193 0.04961,0.0193 0.245291,0 0.460265,0.25907 0.21773,0.25907 0.21773,0.64768 0,0.33899 -0.220486,0.62011 -0.220486,0.27837 -0.595313,0.44373 -0.374826,0.16261 -0.735872,0.16261 -0.71658,0 -1.182357,-0.42995 -0.465777,-0.42995 -0.465777,-1.0666 0,-0.49609 0.396875,-0.8847 0.399631,-0.39136 0.923286,-0.43546 0.04961,-0.006 0.04961,-0.022 0,-0.0165 -0.03858,-0.0689 l -0.738628,-1.03904 q -0.02481,-0.0331 -0.02481,-0.0551 0,-0.0551 0.104731,-0.0662 0.107487,-0.0138 0.37207,-0.0138 h 1.276064 q 0.107487,0 0.159852,0.0165 0.05237,0.0165 0.07993,0.0882 0.03032,0.0689 0.03032,0.22324 0,0.25632 -0.03858,0.31144 -0.03859,0.0551 -0.112999,0.0551 -0.07717,0 -0.132292,-0.11851 -0.04961,-0.10749 -0.110243,-0.10749 h -0.763433 q -0.162608,0 -0.162608,0.0992 0,0.0496 0.03859,0.10473 z"
             style="font-style:normal;font-variant:normal;font-weight:normal;font-stretch:normal;font-size:5.64444447px;font-family:'Poor Richard';-inkscape-font-specification:'Poor Richard';stroke-width:0.1731136"
             id="path5263"
             inkscape:connector-curvature="0" />
        </g>
        <g
           aria-label="M"
           style="font-style:normal;font-weight:normal;font-size:18.01634598px;line-height:1.25;font-family:sans-serif;letter-spacing:0px;word-spacing:0px;fill:#000000;fill-opacity:1;stroke:none;stroke-width:0.45040864"
           id="text4557"
           transform="matrix(0.5818143,0,0,0.5818143,28.060714,59.976488)">
          <path
             d="m 75.521446,143.30084 q 0,0.36068 0.167144,0.64219 0.167144,0.2727 0.668575,0.37827 0.510229,0.0968 0.606996,0.20233 0.09677,0.10557 0.09677,0.25511 0,0.15835 -0.140753,0.26392 -0.131956,0.11436 -0.38707,0.11436 -0.193535,0 -0.747749,-0.088 -0.554214,-0.088 -0.923689,-0.088 -0.246318,0 -0.879705,0.088 -0.633387,0.088 -0.906095,0.088 -0.563011,0 -0.563011,-0.41346 0,-0.20234 0.123158,-0.26391 0.123159,-0.0704 0.38707,-0.0968 0.642185,-0.0704 0.800531,-0.23752 0.167144,-0.17594 0.167144,-0.80933 v -7.54786 q 0,-0.48384 -0.04398,-0.48384 -0.06158,0 -0.290302,0.46624 l -1.363542,2.66551 q -0.853314,1.67143 -1.557077,2.9734 -0.694966,1.29316 -0.747749,1.38993 -0.04399,0.0968 -0.105564,0.15835 -0.06158,0.0616 -0.193535,0.0616 -0.219926,0 -0.395867,-0.34309 l -3.281298,-6.50981 q -0.228723,-0.45745 -0.281505,-0.45745 -0.04398,0 -0.04398,0.45745 v 7.45989 q 0,0.32549 0.281505,0.54542 0.281506,0.21113 0.545417,0.21113 0.738952,0 0.738952,0.41346 0,0.37827 -0.642185,0.37827 -0.105564,0 -0.598199,-0.0968 -0.483837,-0.0968 -0.686169,-0.0968 -0.263911,0 -0.730155,0.10556 -0.457446,0.10557 -0.650981,0.10557 -0.281505,0 -0.457446,-0.14955 -0.175941,-0.14076 -0.175941,-0.2991 0,-0.15835 0.202332,-0.27271 0.211129,-0.12316 0.483837,-0.12316 0.862111,0 0.862111,-1.01166 v -9.20171 q 0,-0.36068 -0.228724,-0.61579 -0.228723,-0.26391 -0.650981,-0.31669 -0.422258,-0.0616 -0.554214,-0.18474 -0.131955,-0.12316 -0.131955,-0.3079 0,-0.13195 0.167144,-0.23752 0.175941,-0.10556 0.351881,-0.10556 0.184738,0 0.457447,0.0792 0.272708,0.0704 0.439852,0.0704 0.167144,0 0.422258,-0.0704 0.255114,-0.0792 0.413461,-0.0792 0.211129,0 0.334288,0.16714 0.131955,0.16714 0.360679,0.66858 l 1.996928,4.02904 1.671439,3.35168 q 0.105564,0.21112 0.158347,0.21112 0.06158,0 0.158346,-0.19353 2.718287,-5.10229 3.80912,-7.24877 0.325491,-0.63338 0.554214,-0.80053 0.23752,-0.16714 0.501432,-0.16714 0.123158,0 0.413461,0.0352 0.290302,0.0352 0.439852,0.0352 0.140753,0 0.351882,-0.044 0.219926,-0.044 0.272708,-0.044 0.47504,0 0.47504,0.37827 0,0.3079 -0.457446,0.3079 -0.378273,0 -0.659778,0.2727 -0.281506,0.26392 -0.343085,0.38707 -0.06158,0.11437 -0.06158,0.56301 z"
             style="font-style:normal;font-variant:normal;font-weight:normal;font-stretch:normal;font-family:'Poor Richard';-inkscape-font-specification:'Poor Richard';stroke-width:0.45040864"
             id="path5260"
             inkscape:connector-curvature="0" />
        </g>
        <g
           aria-label="C"
           style="font-style:normal;font-weight:normal;font-size:18.01634598px;line-height:1.25;font-family:sans-serif;letter-spacing:0px;word-spacing:0px;fill:#000000;fill-opacity:1;stroke:none;stroke-width:0.45040864"
           id="text4561"
           transform="matrix(0.5818143,0,0,0.5818143,28.060714,59.976488)">
          <path
             d="m 60.851282,142.46073 q 0.131956,0 0.228723,0.10556 0.09677,0.0968 0.09677,0.17594 0,0.3079 -0.712561,0.98527 -0.703763,0.66857 -1.847379,1.15241 -1.143616,0.47504 -2.419187,0.47504 -2.058508,0 -3.580397,-0.8973 -1.513091,-0.89729 -2.322419,-2.49836 -0.809328,-1.60106 -0.809328,-3.32528 0,-1.72422 0.791733,-3.22851 0.791734,-1.5131 2.252044,-2.35761 1.460309,-0.84452 3.386862,-0.84452 1.231586,0 2.269637,0.32549 1.046848,0.3167 1.645047,0.77414 0.606996,0.45745 0.606996,0.69497 0,0.36947 -0.01759,0.66857 -0.01759,0.2991 -0.01759,0.36068 0,0.10557 0.06158,0.32549 0.06158,0.21113 0.06158,0.39587 0,0.2903 -0.360679,0.2903 -0.114362,0 -0.228723,-0.10556 -0.114362,-0.10557 -0.334288,-0.5894 -0.466243,-1.02926 -1.002863,-1.4955 -0.941284,-0.81813 -2.630316,-0.81813 -2.17287,0 -3.386862,1.58347 -1.205195,1.57467 -1.205195,4.07303 0,2.71829 1.310759,4.30176 1.31076,1.57467 3.536412,1.57467 0.571808,0 1.794597,-0.37827 1.231586,-0.38707 2.427984,-1.4867 0.263912,-0.23752 0.404664,-0.23752 z"
             style="font-style:normal;font-variant:normal;font-weight:normal;font-stretch:normal;font-family:'Poor Richard';-inkscape-font-specification:'Poor Richard';stroke-width:0.45040864"
             id="path5257"
             inkscape:connector-curvature="0" />
        </g>
      </g>
      <g
         transform="matrix(0.5818143,0,0,0.5818143,27.6997,59.976488)"
         id="text4565"
         style="font-style:normal;font-weight:normal;font-size:18.01634598px;line-height:1.25;font-family:sans-serif;letter-spacing:0px;word-spacing:0px;fill:#000000;fill-opacity:1;stroke:none;stroke-width:0.45040864"
         aria-label="Bookkeeping, LLC">
        <g
           transform="translate(-14.877897,-0.45475565)"
           id="g5242">
          <path
             d="m 81.94952,140.21072 q 0.485758,0 0.895724,0.31695 0.409967,0.31351 0.409967,0.81994 0,0.27216 -0.186035,0.48231 -0.186036,0.2067 -0.51332,0.32039 l -0.05168,0.0345 0.05168,0.0241 q 0.630453,0.10335 1.07487,0.54432 0.447863,0.44098 0.447863,1.03009 0,0.63045 -0.54088,1.04042 -0.537435,0.40996 -1.553738,0.40996 -1.61575,0 -1.867242,-0.0138 -0.248047,-0.0138 -0.248047,-0.14125 0,-0.062 0.03445,-0.10679 0.0379,-0.0448 0.213596,-0.0655 0.1757,-0.0207 0.227376,-0.10335 0.05168,-0.0827 0.05168,-0.19637 v -3.78961 q 0,-0.13436 -0.04823,-0.2136 -0.04823,-0.0827 -0.220486,-0.0827 -0.1757,0 -0.220486,-0.0448 -0.04479,-0.0448 -0.04479,-0.12403 0,-0.062 0.06546,-0.0999 0.0689,-0.0413 0.165364,-0.0413 z m -0.981853,1.51929 q 0,0.25838 0.144694,0.32039 0.14814,0.0586 0.468533,0.0586 0.447863,0 0.744141,-0.22393 0.299723,-0.22738 0.299723,-0.60634 0,-0.36173 -0.292833,-0.56155 -0.292833,-0.20326 -0.751031,-0.20326 -0.354844,0 -0.485758,0.0724 -0.127469,0.0724 -0.127469,0.27561 z m 0.03445,2.82153 q 0,0.20326 0.04134,0.2825 0.04134,0.0758 0.175699,0.0999 0.134359,0.0207 0.489204,0.0207 0.764811,0 1.216119,-0.34106 0.454752,-0.34451 0.454752,-0.95085 0,-0.565 -0.485758,-0.90951 -0.485759,-0.34795 -1.205784,-0.34795 -0.320393,0 -0.502984,0.0861 -0.18259,0.0827 -0.18259,0.23771 z"
             style="font-style:normal;font-variant:normal;font-weight:normal;font-stretch:normal;font-size:7.05555534px;font-family:'Poor Richard';-inkscape-font-specification:'Poor Richard';stroke-width:0.45040864"
             id="path5226"
             inkscape:connector-curvature="0" />
          <path
             d="m 85.759795,142.69464 q 0.571886,0 0.995633,0.39274 0.427192,0.39274 0.427192,0.90606 0,0.57533 -0.406522,0.93706 -0.406521,0.36174 -1.08865,0.36174 -0.537435,0 -0.968071,-0.36863 -0.427192,-0.36862 -0.427192,-0.91639 0,-0.52366 0.375515,-0.9164 0.378961,-0.39618 1.092095,-0.39618 z m 0.0069,2.29443 q 0.396186,0 0.630452,-0.28594 0.237712,-0.28594 0.237712,-0.72347 0,-0.43064 -0.254937,-0.70625 -0.251492,-0.2756 -0.640788,-0.2756 -0.399631,0 -0.620117,0.27216 -0.220486,0.26872 -0.220486,0.69591 0,0.47198 0.244601,0.74758 0.244602,0.27561 0.623563,0.27561 z"
             style="font-style:normal;font-variant:normal;font-weight:normal;font-stretch:normal;font-size:7.05555534px;font-family:'Poor Richard';-inkscape-font-specification:'Poor Richard';stroke-width:0.45040864"
             id="path5228"
             inkscape:connector-curvature="0" />
          <path
             d="m 88.846601,142.69464 q 0.571886,0 0.995632,0.39274 0.427192,0.39274 0.427192,0.90606 0,0.57533 -0.406521,0.93706 -0.406521,0.36174 -1.08865,0.36174 -0.537435,0 -0.968072,-0.36863 -0.427192,-0.36862 -0.427192,-0.91639 0,-0.52366 0.375515,-0.9164 0.378961,-0.39618 1.092096,-0.39618 z m 0.0069,2.29443 q 0.396186,0 0.630452,-0.28594 0.237712,-0.28594 0.237712,-0.72347 0,-0.43064 -0.254937,-0.70625 -0.251492,-0.2756 -0.640788,-0.2756 -0.399631,0 -0.620117,0.27216 -0.220486,0.26872 -0.220486,0.69591 0,0.47198 0.244602,0.74758 0.244601,0.27561 0.623562,0.27561 z"
             style="font-style:normal;font-variant:normal;font-weight:normal;font-stretch:normal;font-size:7.05555534px;font-family:'Poor Richard';-inkscape-font-specification:'Poor Richard';stroke-width:0.45040864"
             id="path5230"
             inkscape:connector-curvature="0" />
          <path
             d="m 93.187421,144.7617 q 0.07579,0.0861 0.18948,0.0861 0.06546,0 0.155029,-0.10335 0.08957,-0.10335 0.144694,-0.10335 0.05168,0 0.08957,0.0517 0.04134,0.0482 0.04134,0.10336 0,0.1757 -0.18948,0.34795 -0.189481,0.16881 -0.36518,0.16881 -0.158475,0 -0.375516,-0.15503 -0.213596,-0.15503 -0.633897,-0.65112 -0.303169,-0.35829 -0.368626,-0.35829 -0.02411,0 -0.09302,0.0689 -0.0689,0.0655 -0.148139,0.1378 -0.07924,0.0724 -0.08957,0.11369 -0.0069,0.0413 -0.0069,0.2446 0,0.093 0.04479,0.15848 0.04823,0.0654 0.206706,0.0896 0.16192,0.0207 0.19637,0.0655 0.0379,0.0413 0.0379,0.10335 0,0.0517 -0.03101,0.0792 -0.03101,0.031 -0.137804,0.031 -0.103353,0 -0.306614,-0.0241 -0.20326,-0.0241 -0.306613,-0.0241 -0.09646,0 -0.282498,0.0241 -0.186035,0.0241 -0.282498,0.0241 -0.217041,0 -0.217041,-0.13091 0,-0.062 0.03445,-0.0999 0.03445,-0.0413 0.206706,-0.0586 0.1757,-0.0207 0.227376,-0.1068 0.05168,-0.0861 0.05168,-0.20326 v -3.75171 q 0,-0.0965 -0.05168,-0.16537 -0.04823,-0.0689 -0.220486,-0.11024 -0.172255,-0.0413 -0.210151,-0.0827 -0.0379,-0.0413 -0.0379,-0.0999 0,-0.0517 0.05857,-0.0861 0.05857,-0.0344 0.117133,-0.0344 0.05857,0 0.1757,0.031 0.120578,0.031 0.18948,0.031 0.07579,0 0.18948,-0.0241 0.113689,-0.0241 0.151585,-0.0241 0.0689,0 0.103352,0.0344 0.04134,0.0413 0.06201,0.18604 0.02412,0.14125 0.02412,0.59255 v 2.71474 q 0,0.0861 0.06201,0.0861 0.04134,0 0.279052,-0.2446 l 0.454753,-0.46854 q 0.0379,-0.0344 0.0379,-0.0586 0,-0.0207 -0.08268,-0.0517 -0.08268,-0.0344 -0.08268,-0.10335 0,-0.0724 0.03101,-0.1068 0.03445,-0.0344 0.141249,-0.0344 0.0689,0 0.206706,0.0172 0.141249,0.0138 0.217041,0.0138 0.09302,0 0.282498,-0.0207 0.192925,-0.0241 0.285943,-0.0241 0.09991,0 0.172254,0.0413 0.07579,0.0413 0.07579,0.11369 0,0.13436 -0.254937,0.13436 -0.375515,0 -0.516764,0.062 -0.141249,0.062 -0.320394,0.24115 -0.179145,0.17915 -0.199815,0.20671 -0.02067,0.0241 -0.02067,0.0689 0,0.0861 0.07924,0.16881 z"
             style="font-style:normal;font-variant:normal;font-weight:normal;font-stretch:normal;font-size:7.05555534px;font-family:'Poor Richard';-inkscape-font-specification:'Poor Richard';stroke-width:0.45040864"
             id="path5232"
             inkscape:connector-curvature="0" />
          <path
             d="m 96.687637,144.7617 q 0.07579,0.0861 0.18948,0.0861 0.06546,0 0.15503,-0.10335 0.08957,-0.10335 0.144694,-0.10335 0.05168,0 0.08957,0.0517 0.04134,0.0482 0.04134,0.10336 0,0.1757 -0.18948,0.34795 -0.18948,0.16881 -0.36518,0.16881 -0.158474,0 -0.375515,-0.15503 -0.213596,-0.15503 -0.633898,-0.65112 -0.303168,-0.35829 -0.368625,-0.35829 -0.02412,0 -0.09302,0.0689 -0.0689,0.0655 -0.148139,0.1378 -0.07924,0.0724 -0.08957,0.11369 -0.0069,0.0413 -0.0069,0.2446 0,0.093 0.04479,0.15848 0.04823,0.0654 0.206706,0.0896 0.161919,0.0207 0.19637,0.0655 0.0379,0.0413 0.0379,0.10335 0,0.0517 -0.03101,0.0792 -0.03101,0.031 -0.137804,0.031 -0.103353,0 -0.306613,-0.0241 -0.203261,-0.0241 -0.306614,-0.0241 -0.09646,0 -0.282497,0.0241 -0.186036,0.0241 -0.282498,0.0241 -0.217041,0 -0.217041,-0.13091 0,-0.062 0.03445,-0.0999 0.03445,-0.0413 0.206705,-0.0586 0.1757,-0.0207 0.227377,-0.1068 0.05168,-0.0861 0.05168,-0.20326 v -3.75171 q 0,-0.0965 -0.05168,-0.16537 -0.04823,-0.0689 -0.220486,-0.11024 -0.172255,-0.0413 -0.210151,-0.0827 -0.0379,-0.0413 -0.0379,-0.0999 0,-0.0517 0.05857,-0.0861 0.05857,-0.0344 0.117134,-0.0344 0.05857,0 0.175699,0.031 0.120579,0.031 0.189481,0.031 0.07579,0 0.18948,-0.0241 0.113688,-0.0241 0.151584,-0.0241 0.0689,0 0.103353,0.0344 0.04134,0.0413 0.06201,0.18604 0.02411,0.14125 0.02411,0.59255 v 2.71474 q 0,0.0861 0.06201,0.0861 0.04134,0 0.279053,-0.2446 l 0.454752,-0.46854 q 0.0379,-0.0344 0.0379,-0.0586 0,-0.0207 -0.08268,-0.0517 -0.08268,-0.0344 -0.08268,-0.10335 0,-0.0724 0.03101,-0.1068 0.03445,-0.0344 0.141249,-0.0344 0.0689,0 0.206705,0.0172 0.141249,0.0138 0.217041,0.0138 0.09302,0 0.282498,-0.0207 0.192926,-0.0241 0.285943,-0.0241 0.09991,0 0.172255,0.0413 0.07579,0.0413 0.07579,0.11369 0,0.13436 -0.254937,0.13436 -0.375515,0 -0.516764,0.062 -0.141249,0.062 -0.320394,0.24115 -0.179145,0.17915 -0.199816,0.20671 -0.02067,0.0241 -0.02067,0.0689 0,0.0861 0.07924,0.16881 z"
             style="font-style:normal;font-variant:normal;font-weight:normal;font-stretch:normal;font-size:7.05555534px;font-family:'Poor Richard';-inkscape-font-specification:'Poor Richard';stroke-width:0.45040864"
             id="path5234"
             inkscape:connector-curvature="0" />
          <path
             d="m 99.615969,143.83841 q 0.07924,0 0.106798,-0.0276 0.02756,-0.0276 0.02756,-0.0999 0,-0.26527 -0.206706,-0.49609 -0.203261,-0.23082 -0.616672,-0.23082 -0.285943,0 -0.592557,0.27216 -0.303168,0.27216 -0.303168,0.7717 0,0.36518 0.320394,0.65801 0.323839,0.28939 0.72347,0.28939 0.303168,0 0.654568,-0.18948 0.134359,-0.0724 0.1757,-0.0724 0.06201,0 0.09646,0.0344 0.0379,0.0345 0.0379,0.0861 0,0.12403 -0.382862,0.30662 -0.37896,0.17914 -0.782037,0.17914 -0.596001,0 -1.002522,-0.40652 -0.406522,-0.40652 -0.406522,-0.96807 0,-0.51332 0.444418,-0.8785 0.447862,-0.36518 1.002522,-0.36518 0.720025,0 1.078315,0.36862 0.358738,0.36863 0.358738,0.88195 0,0.11024 -0.0551,0.1378 -0.0551,0.0241 -0.20326,0.0241 h -1.581749 q -0.192925,0 -0.192925,-0.14125 0,-0.13436 0.199815,-0.13436 z"
             style="font-style:normal;font-variant:normal;font-weight:normal;font-stretch:normal;font-size:7.05555534px;font-family:'Poor Richard';-inkscape-font-specification:'Poor Richard';stroke-width:0.45040864"
             id="path5236"
             inkscape:connector-curvature="0" />
          <path
             d="m 102.70277,143.83841 q 0.0792,0 0.1068,-0.0276 0.0276,-0.0276 0.0276,-0.0999 0,-0.26527 -0.2067,-0.49609 -0.20326,-0.23082 -0.61667,-0.23082 -0.28595,0 -0.59256,0.27216 -0.30317,0.27216 -0.30317,0.7717 0,0.36518 0.32039,0.65801 0.32384,0.28939 0.72347,0.28939 0.30317,0 0.65457,-0.18948 0.13436,-0.0724 0.1757,-0.0724 0.062,0 0.0965,0.0344 0.0379,0.0345 0.0379,0.0861 0,0.12403 -0.3824,0.30662 -0.37897,0.17914 -0.78204,0.17914 -0.596,0 -1.00252,-0.40652 -0.40653,-0.40652 -0.40653,-0.96807 0,-0.51332 0.44442,-0.8785 0.44786,-0.36518 1.00252,-0.36518 0.72003,0 1.07832,0.36862 0.35829,0.36863 0.35829,0.88195 0,0.11024 -0.0551,0.1378 -0.0551,0.0241 -0.20326,0.0241 h -1.5813 q -0.19293,0 -0.19293,-0.14125 0,-0.13436 0.19982,-0.13436 z"
             style="font-style:normal;font-variant:normal;font-weight:normal;font-stretch:normal;font-size:7.05555534px;font-family:'Poor Richard';-inkscape-font-specification:'Poor Richard';stroke-width:0.45040864"
             id="path5238"
             inkscape:connector-curvature="0" />
          <path
             d="m 104.15316,145.72288 q 0.0207,-0.19637 0.0207,-1.08865 0,-0.43064 -0.0207,-1.25746 -0.007,-0.0861 -0.0724,-0.14814 -0.062,-0.0655 -0.26527,-0.0999 -0.15503,-0.0241 -0.20326,-0.0586 -0.0448,-0.0345 -0.0448,-0.0861 0,-0.13436 0.2136,-0.13436 0.0413,0 0.20326,0.0344 0.16192,0.031 0.20326,0.031 0.0448,0 0.18604,-0.0379 0.14124,-0.0413 0.1757,-0.0413 0.093,0 0.11713,0.0413 0.0241,0.0413 0.0241,0.12747 v 1.21612 q 0,0.37207 0.23427,0.59255 0.23427,0.21704 0.54777,0.21704 0.15158,0 0.38585,-0.13091 0.23771,-0.13436 0.36863,-0.38585 0.13436,-0.25149 0.13436,-0.56844 0,-0.37552 -0.23083,-0.66835 -0.22737,-0.29283 -0.53054,-0.29283 -0.18259,0 -0.33762,0.0689 -0.15158,0.0654 -0.19982,0.0654 -0.0482,0 -0.0861,-0.031 -0.0379,-0.031 -0.0379,-0.0758 0,-0.0999 0.25149,-0.20326 0.25494,-0.1068 0.43753,-0.1068 0.55811,0 0.93362,0.35484 0.37896,0.35485 0.37896,0.96463 0,0.47198 -0.38929,0.86816 -0.3893,0.39619 -0.93707,0.39619 -0.21015,0 -0.39963,-0.0551 -0.18604,-0.0551 -0.4892,-0.25494 -0.0276,0 -0.0276,0.1757 0,0.43753 -0.0586,0.6649 -0.0586,0.23083 -0.19982,0.39964 -0.14125,0.1688 -0.27905,0.23771 -0.13436,0.0723 -0.26183,0.0723 -0.18948,0 -0.18948,-0.0896 0,-0.0379 0.0861,-0.0827 0.20671,-0.11369 0.2825,-0.29628 0.0758,-0.17914 0.0758,-0.33417 z"
             style="font-style:normal;font-variant:normal;font-weight:normal;font-stretch:normal;font-size:7.05555534px;font-family:'Poor Richard';-inkscape-font-specification:'Poor Richard';stroke-width:0.45040864"
             id="path5240"
             inkscape:connector-curvature="0" />
          <path
             d="m 107.93587,141.65077 q 0.15848,0 0.27217,0.11714 0.11713,0.11369 0.11713,0.27216 0,0.14125 -0.11369,0.24116 -0.11369,0.0965 -0.26872,0.0965 -0.15502,0 -0.26871,-0.1068 -0.11025,-0.11024 -0.11025,-0.26183 0,-0.14469 0.11025,-0.25149 0.11369,-0.1068 0.26182,-0.1068 z m 0.27561,2.99724 q 0,0.16881 0.062,0.22048 0.062,0.0517 0.16537,0.0689 0.10335,0.0138 0.14469,0.0413 0.0448,0.0276 0.0448,0.11368 0,0.11369 -0.19982,0.11369 -0.0861,0 -0.25838,-0.0207 -0.17225,-0.0207 -0.25494,-0.0207 -0.0827,0 -0.24115,0.0276 -0.15848,0.0276 -0.23771,0.0276 -0.0792,0 -0.13781,-0.0448 -0.0551,-0.0448 -0.0551,-0.11714 0,-0.0448 0.031,-0.0758 0.031,-0.0344 0.15847,-0.0551 0.12747,-0.0207 0.1757,-0.0827 0.0517,-0.062 0.0517,-0.29973 v -1.16444 q 0,-0.14814 -0.062,-0.19637 -0.062,-0.0482 -0.18259,-0.0724 -0.12058,-0.0241 -0.15159,-0.062 -0.0276,-0.0379 -0.0276,-0.093 0,-0.062 0.0482,-0.0999 0.0517,-0.0413 0.12058,-0.0413 0.0586,0 0.16536,0.0241 0.11025,0.0241 0.16192,0.0241 0.0586,0 0.17915,-0.0172 0.12058,-0.0172 0.17914,-0.0172 0.12747,0 0.12747,0.21359 0,0.0345 -0.003,0.093 -0.003,0.0551 -0.003,0.0758 z"
             style="font-style:normal;font-variant:normal;font-weight:normal;font-stretch:normal;font-size:7.05555534px;font-family:'Poor Richard';-inkscape-font-specification:'Poor Richard';stroke-width:0.45040864"
             id="path5242"
             inkscape:connector-curvature="0" />
          <path
             d="m 111.57734,144.70657 q 0,0.14814 0.0482,0.19637 0.0517,0.0448 0.17915,0.0758 0.13091,0.0276 0.13091,0.10679 0,0.1068 -0.12747,0.1068 -0.0241,0 -0.2067,-0.0103 -0.18259,-0.0103 -0.30662,-0.0103 -0.2067,0 -0.34795,0.0241 -0.14125,0.0241 -0.18259,0.0241 -0.062,0 -0.11714,-0.0413 -0.0517,-0.0413 -0.0517,-0.0999 0,-0.0448 0.0448,-0.0827 0.0448,-0.0413 0.10336,-0.0413 0.11024,0 0.19637,-0.062 0.0861,-0.0655 0.0861,-0.19293 0,-0.83026 0.0103,-1.02664 0.0103,-0.19981 0.0103,-0.22393 0,-0.26871 -0.24804,-0.26871 -0.1068,0 -0.30662,0.16536 -0.19637,0.16192 -0.27905,0.16192 -0.0276,0 -0.062,-0.0344 -0.0345,-0.0344 -0.0345,-0.0724 0,-0.12058 0.31695,-0.36862 0.31695,-0.25149 0.62012,-0.25149 0.17914,0 0.31005,0.093 0.13092,0.0896 0.17226,0.22738 0.0448,0.1378 0.0448,0.38929 l -0.003,0.22049 z m -2.11184,-1.32636 q 0,-0.12747 -0.0517,-0.18948 -0.0482,-0.0655 -0.20671,-0.093 -0.15847,-0.0276 -0.15847,-0.14124 0,-0.0482 0.0551,-0.093 0.0551,-0.0482 0.1447,-0.0482 0.0379,0 0.13091,0.0241 0.0965,0.0241 0.15847,0.0241 0.0379,0 0.17226,-0.0207 0.1378,-0.0207 0.17225,-0.0207 0.0689,0 0.0965,0.0586 0.0276,0.0551 0.031,0.22738 0.007,0.28594 0.007,0.60978 l -0.0207,0.98185 q 0,0.1068 0.0172,0.13092 0.0172,0.0241 0.0792,0.062 0.0655,0.0379 0.16537,0.0586 0.0999,0.0207 0.12747,0.0586 0.0276,0.0344 0.0276,0.0827 0,0.11369 -0.17915,0.11369 -0.12402,0 -0.25493,-0.0207 -0.13092,-0.0207 -0.25839,-0.0207 -0.10335,0 -0.26871,0.0172 -0.16192,0.0172 -0.24116,0.0172 -0.1757,0 -0.1757,-0.12747 0,-0.0551 0.031,-0.0896 0.031,-0.0344 0.13436,-0.0413 0.11714,-0.007 0.1447,-0.0345 0.0792,-0.0827 0.0999,-0.14469 0.0207,-0.062 0.0207,-0.25494 z"
             style="font-style:normal;font-variant:normal;font-weight:normal;font-stretch:normal;font-size:7.05555534px;font-family:'Poor Richard';-inkscape-font-specification:'Poor Richard';stroke-width:0.45040864"
             id="path5244"
             inkscape:connector-curvature="0" />
          <path
             d="m 114.59869,144.24149 0.0103,0.0138 q 0.34107,0.16536 0.55122,0.46853 0.21015,0.30317 0.21015,0.65112 0,0.53055 -0.47542,0.86817 -0.47543,0.34106 -1.11966,0.34106 -0.66146,0 -1.12654,-0.3514 -0.46165,-0.34795 -0.46165,-0.91295 0,-0.33073 0.21704,-0.62012 0.21704,-0.28938 0.56844,-0.43752 l 0.0207,-0.0241 -0.0276,-0.0345 q -0.17225,-0.1068 -0.27216,-0.27905 -0.0965,-0.1757 -0.0965,-0.38241 0,-0.33417 0.28939,-0.55121 0.29283,-0.22049 0.74069,-0.27561 0.0551,-0.007 0.0792,-0.0551 0.0724,-0.16537 0.24116,-0.36174 0.17225,-0.19981 0.31006,-0.23771 0.1378,-0.0413 0.47197,-0.0413 0.19637,0 0.19637,0.20326 0,0.12058 -0.0965,0.19637 -0.0965,0.0724 -0.24805,0.0724 -0.0345,0 -0.0861,-0.0103 -0.0517,-0.0103 -0.0861,-0.0103 -0.16881,0 -0.2825,0.093 -0.11369,0.093 -0.11369,0.12403 0,0.0344 0.0448,0.0344 0.41341,0.0517 0.65801,0.28594 0.2446,0.23427 0.2446,0.58911 0,0.37552 -0.33761,0.61323 z m -0.79582,-0.0655 q 0.26872,0 0.45476,-0.18259 0.18948,-0.18604 0.18948,-0.44442 0,-0.14125 -0.0896,-0.27561 -0.0896,-0.1378 -0.23426,-0.20326 -0.14125,-0.0689 -0.18948,-0.0689 -0.0241,0 -0.031,0.031 -0.0413,0.15847 -0.1757,0.15847 -0.12058,0 -0.12058,-0.13436 0,-0.0379 -0.031,-0.0379 -0.0482,0 -0.16537,0.062 -0.11369,0.0586 -0.19637,0.19981 -0.0792,0.13781 -0.0792,0.31006 0,0.2446 0.20326,0.41686 0.20327,0.16881 0.46509,0.16881 z m -0.0344,2.11873 q 0.44786,0 0.75103,-0.25838 0.30662,-0.25838 0.30662,-0.67524 0,-0.4203 -0.29973,-0.66835 -0.29628,-0.24804 -0.75103,-0.24804 -0.49609,0 -0.7717,0.25149 -0.27216,0.24805 -0.27216,0.67868 0,0.41341 0.32384,0.66491 0.32384,0.25493 0.71313,0.25493 z"
             style="font-style:normal;font-variant:normal;font-weight:normal;font-stretch:normal;font-size:7.05555534px;font-family:'Poor Richard';-inkscape-font-specification:'Poor Richard';stroke-width:0.45040864"
             id="path5246"
             inkscape:connector-curvature="0" />
          <path
             d="m 116.00773,144.49987 q 0.16192,0 0.28939,0.15503 0.12747,0.15158 0.12747,0.40307 0,0.2136 -0.23082,0.65457 -0.23082,0.44097 -0.34107,0.44097 -0.062,0 -0.062,-0.0654 0,-0.0172 0.12747,-0.28595 0.13091,-0.26871 0.13091,-0.4203 0,-0.11713 -0.15158,-0.19292 -0.14814,-0.0724 -0.19982,-0.15159 -0.0482,-0.0827 -0.0482,-0.1757 0,-0.16881 0.0999,-0.26527 0.0999,-0.0965 0.25838,-0.0965 z"
             style="font-style:normal;font-variant:normal;font-weight:normal;font-stretch:normal;font-size:7.05555534px;font-family:'Poor Richard';-inkscape-font-specification:'Poor Richard';stroke-width:0.45040864"
             id="path5248"
             inkscape:connector-curvature="0" />
          <path
             d="m 120.47946,144.90294 q 0.12747,0 0.22049,-0.0586 0.0965,-0.062 0.13436,-0.26872 0.0413,-0.20671 0.093,-0.24805 0.0517,-0.0448 0.12402,-0.0448 0.0517,0 0.1068,0.0551 0.0551,0.0551 0.0551,0.14814 0,0.29972 0.0413,0.59944 0,0.18604 -0.17914,0.16881 -0.11714,-0.0138 -0.36174,-0.0138 H 118.03 q -0.31695,0 -0.31695,-0.16192 0,-0.10679 0.0551,-0.13435 0.0586,-0.031 0.1757,-0.0345 0.22394,-0.0138 0.27906,-0.11713 0.0551,-0.1068 0.0551,-0.24116 v -3.6139 q 0,-0.12747 -0.062,-0.22738 -0.062,-0.10335 -0.27217,-0.16881 -0.2067,-0.0654 -0.25149,-0.12058 -0.0413,-0.0586 -0.0413,-0.13091 0,-0.0413 0.0517,-0.0792 0.0517,-0.0413 0.12402,-0.0413 0.0482,0 0.23082,0.0655 0.18604,0.062 0.40997,0.062 0.27905,0 0.5271,-0.0689 0.24805,-0.0724 0.32039,-0.0724 0.0792,0 0.13781,0.0586 0.062,0.0551 0.062,0.12402 0,0.0586 -0.0379,0.0999 -0.0344,0.0379 -0.18603,0.0689 -0.19293,0.0379 -0.27217,0.10336 -0.13435,0.11368 -0.13435,0.38585 v 3.44854 q 0,0.25838 0.0792,0.35829 0.0827,0.0999 0.23771,0.0999 z"
             style="font-style:normal;font-variant:normal;font-weight:normal;font-stretch:normal;font-size:7.05555534px;font-family:'Poor Richard';-inkscape-font-specification:'Poor Richard';stroke-width:0.45040864"
             id="path5250"
             inkscape:connector-curvature="0" />
          <path
             d="m 124.15883,144.90294 q 0.12747,0 0.22048,-0.0586 0.0965,-0.062 0.13436,-0.26872 0.0413,-0.20671 0.093,-0.24805 0.0517,-0.0448 0.12402,-0.0448 0.0517,0 0.1068,0.0551 0.0551,0.0551 0.0551,0.14814 0,0.29972 0.0413,0.59944 0,0.18604 -0.17914,0.16881 -0.11713,-0.0138 -0.36174,-0.0138 h -2.68373 q -0.31694,0 -0.31694,-0.16192 0,-0.10679 0.0551,-0.13435 0.0586,-0.031 0.1757,-0.0345 0.22393,-0.0138 0.27905,-0.11713 0.0551,-0.1068 0.0551,-0.24116 v -3.6139 q 0,-0.12747 -0.062,-0.22738 -0.062,-0.10335 -0.27216,-0.16881 -0.20671,-0.0654 -0.25149,-0.12058 -0.0414,-0.0586 -0.0414,-0.13091 0,-0.0413 0.0517,-0.0792 0.0517,-0.0413 0.12402,-0.0413 0.0482,0 0.23083,0.0655 0.18603,0.062 0.40996,0.062 0.27905,0 0.5271,-0.0689 0.24805,-0.0724 0.3204,-0.0724 0.0792,0 0.1378,0.0586 0.062,0.0551 0.062,0.12402 0,0.0586 -0.0379,0.0999 -0.0345,0.0379 -0.18604,0.0689 -0.19293,0.0379 -0.27216,0.10336 -0.13436,0.11368 -0.13436,0.38585 v 3.44854 q 0,0.25838 0.0792,0.35829 0.0827,0.0999 0.23771,0.0999 z"
             style="font-style:normal;font-variant:normal;font-weight:normal;font-stretch:normal;font-size:7.05555534px;font-family:'Poor Richard';-inkscape-font-specification:'Poor Richard';stroke-width:0.45040864"
             id="path5252"
             inkscape:connector-curvature="0" />
          <path
             d="m 129.56074,144.13813 q 0.0517,0 0.0896,0.0413 0.0379,0.0379 0.0379,0.0689 0,0.12057 -0.27906,0.38585 -0.2756,0.26182 -0.72347,0.4513 -0.44786,0.18604 -0.9474,0.18604 -0.80615,0 -1.40215,-0.3514 -0.59256,-0.3514 -0.90951,-0.97841 -0.31694,-0.62701 -0.31694,-1.30224 0,-0.67524 0.31005,-1.26435 0.31006,-0.59256 0.88195,-0.92329 0.57188,-0.33073 1.32636,-0.33073 0.48231,0 0.88883,0.12747 0.40997,0.12402 0.64424,0.30317 0.23771,0.17914 0.23771,0.27216 0,0.1447 -0.007,0.26183 -0.007,0.11713 -0.007,0.14125 0,0.0413 0.0241,0.12747 0.0241,0.0827 0.0241,0.15502 0,0.11369 -0.14125,0.11369 -0.0448,0 -0.0896,-0.0413 -0.0448,-0.0413 -0.13091,-0.23082 -0.18259,-0.40308 -0.39275,-0.58567 -0.36862,-0.32039 -1.03008,-0.32039 -0.85094,0 -1.32636,0.62012 -0.47198,0.61667 -0.47198,1.59508 0,1.06453 0.51332,1.68465 0.51332,0.61667 1.38493,0.61667 0.22393,0 0.7028,-0.14814 0.48231,-0.15158 0.95084,-0.58222 0.10336,-0.093 0.15848,-0.093 z"
             style="font-style:normal;font-variant:normal;font-weight:normal;font-stretch:normal;font-size:7.05555534px;font-family:'Poor Richard';-inkscape-font-specification:'Poor Richard';stroke-width:0.45040864"
             id="path5254"
             inkscape:connector-curvature="0" />
        </g>
      </g>
    </g>
  </g>
</svg>
